# File created by Blade
# Date/Time:  Wed Jan 21 18:40:15 2015
#---------------------------------------------------------
:version 1.10
:name HOM
:units
  mass 1.0
  length 1.000000
  angle deg
:documentation
     Acclaim Skeleton File
:root
   axis xyz
   order TX TY TZ RX RY RZ
   position 0.000000 0.000000 0.000000
   orientation 0 0 0
:bonedata
   begin
      id 1
      name RightUpLeg_dum
      direction -1.000000 0.000000 0.000000
      length 3.693983
      axis 0.0 0.0 0.0 xyz
   end
   begin
      id 2
      name LeftUpLeg_dum
      direction 1.000000 0.000000 0.000000
      length 3.693983
      axis 0.0 0.0 0.0 xyz
   end
   begin
      id 3
      name Spine_dum
      direction 0.000000 1.000000 0.000000
      length 2.392956
      axis 0.0 0.0 0.0 xyz
   end
   begin
      id 4
      name RightUpLeg
      direction 0.000000 -1.000000 0.000000
      length 15.795667
      axis 0.0 0.0 0.0 xyz
      dof rx ry rz
   end
   begin
      id 5
      name RightLeg
      direction 0.000000 -1.000000 0.000000
      length 14.766989
      axis 0.0 0.0 0.0 xyz
      dof rx ry rz
   end
   begin
      id 6
      name RightFoot
      direction 0.000000 -0.258819 0.965926
      length 4.962790
      axis 15.0 0.0 0.0 xyz
      dof rx ry rz
   end
   begin
      id 7
      name RightToeBase
      direction 0.000000 0.000000 1.000000
      length 2.952750
      axis 0.0 0.0 0.0 xyz
      dof rx ry rz
   end
   begin
      id 8
      name LeftUpLeg
      direction 0.000000 -1.000000 0.000000
      length 15.795667
      axis 0.0 0.0 0.0 xyz
      dof rx ry rz
   end
   begin
      id 9
      name LeftLeg
      direction 0.000000 -1.000000 0.000000
      length 14.766989
      axis 0.0 0.0 0.0 xyz
      dof rx ry rz
   end
   begin
      id 10
      name LeftFoot
      direction 0.000000 -0.258819 0.965926
      length 4.962790
      axis 15.0 0.0 0.0 xyz
      dof rx ry rz
   end
   begin
      id 11
      name LeftToeBase
      direction 0.000000 0.000000 1.000000
      length 2.952750
      axis 0.0 0.0 0.0 xyz
      dof rx ry rz
   end
   begin
      id 12
      name Spine
      direction 0.000000 1.000000 0.000000
      length 0.000000
      axis 0.0 0.0 0.0 xyz
      dof rx ry rz
   end
   begin
      id 13
      name Spine_dum1
      direction 0.000000 1.000000 0.000000
      length 13.207411
      axis 0.0 0.0 0.0 xyz
   end
   begin
      id 14
      name Spine_dum2
      direction 0.000000 1.000000 0.000000
      length 13.207411
      axis 0.0 0.0 0.0 xyz
   end
   begin
      id 15
      name Spine_dum3
      direction 0.000000 1.000000 0.000000
      length 19.250100
      axis 0.0 0.0 0.0 xyz
   end
   begin
      id 16
      name RightShoulder
      direction -1.000000 0.000000 0.000000
      length 8.140465
      axis 0.0 0.0 90.0 xyz
      dof rx ry rz
   end
   begin
      id 17
      name RightArm
      direction -1.000000 0.000000 0.000000
      length 10.649840
      axis 0.0 0.0 90.0 xyz
      dof rx ry rz
   end
   begin
      id 18
      name RightForeArm
      direction -1.000000 0.000000 0.000000
      length 8.304624
      axis 0.0 0.0 90.0 xyz
      dof ry rz rx
   end
   begin
      id 19
      name RightHand
      direction -1.000000 0.000000 0.000000
      length 0.000000
      axis 0.0 0.0 90.0 xyz
      dof rx ry rz
   end
   begin
      id 20
      name RightHand_dum1
      direction -1.000000 0.000000 0.000000
      length 3.937000
      axis 0.0 0.0 90.0 xyz
   end
   begin
      id 21
      name RightHand_dum2
      direction 0.000000 0.000000 0.000000
      length 0.000000
      axis 0.0 0.0 90.0 xyz
   end
   begin
      id 22
      name RightHandThumb1
      direction 0.000000 0.000000 1.000000
      length 3.937000
      axis 0.0 0.0 90.0 xyz
      dof rx rz ry
   end
   begin
      id 23
      name LeftShoulder
      direction 1.000000 0.000000 0.000000
      length 8.140465
      axis 0.0 0.0 -90.0 xyz
      dof rx ry rz
   end
   begin
      id 24
      name LeftArm
      direction 1.000000 0.000000 0.000000
      length 10.649840
      axis 0.0 0.0 -90.0 xyz
      dof rx ry rz
   end
   begin
      id 25
      name LeftForeArm
      direction 1.000000 0.000000 0.000000
      length 8.304624
      axis 0.0 0.0 -90.0 xyz
      dof ry rz rx
   end
   begin
      id 26
      name LeftHand
      direction 1.000000 0.000000 0.000000
      length 0.000000
      axis 0.0 0.0 -90.0 xyz
      dof rx ry rz
   end
   begin
      id 27
      name LeftHand_dum1
      direction 1.000000 0.000000 0.000000
      length 3.937000
      axis 0.0 0.0 -90.0 xyz
   end
   begin
      id 28
      name LeftHand_dum2
      direction 0.000000 0.000000 0.000000
      length 0.000000
      axis 0.0 0.0 -90.0 xyz
   end
   begin
      id 29
      name LeftHandThumb1
      direction 0.000000 0.000000 1.000000
      length 3.937000
      axis 0.0 0.0 -90.0 xyz
      dof rx rz ry
   end
   begin
      id 30
      name Head
      direction 0.000000 1.000000 0.000000
      length 4.527550
      axis 0.0 0.0 0.0 xyz
      dof rx ry rz
   end
:hierarchy
   begin
      root RightUpLeg_dum LeftUpLeg_dum Spine_dum
      RightUpLeg_dum RightUpLeg
      LeftUpLeg_dum LeftUpLeg
      Spine_dum Spine
      RightUpLeg RightLeg
      RightLeg RightFoot
      RightFoot RightToeBase
      LeftUpLeg LeftLeg
      LeftLeg LeftFoot
      LeftFoot LeftToeBase
      Spine Spine_dum1 Spine_dum2 Spine_dum3
      Spine_dum1 RightShoulder
      Spine_dum2 LeftShoulder
      Spine_dum3 Head
      RightShoulder RightArm
      RightArm RightForeArm
      RightForeArm RightHand
      RightHand RightHand_dum1 RightHand_dum2
      RightHand_dum2 RightHandThumb1
      LeftShoulder LeftArm
      LeftArm LeftForeArm
      LeftForeArm LeftHand
      LeftHand LeftHand_dum1 LeftHand_dum2
      LeftHand_dum2 LeftHandThumb1
   end

# File created by Blade
# Date/Time:  Wed Jan 21 18:40:08 2015
# Frame Rate: 120.000 fps
#------------------------------------------------------
:FULLY-SPECIFIED
:DEGREES
277
root -2.766708 31.298698 -5.810755 47.283584 3.162627 6.034262
RightUpLeg -46.589624 -38.081293 7.524306
RightLeg -8.626219 -0.000000 0.000000
RightFoot -0.710532 -5.076500 36.545347
RightToeBase 17.727823 -0.000000 -0.000000
LeftUpLeg -55.107108 23.849173 4.833746
LeftLeg 9.865625 -0.000000 -0.000000
LeftFoot 26.245547 -0.343455 -8.475853
LeftToeBase -3.104786 -0.000000 0.000000
Spine -42.990820 3.381549 4.308347
RightShoulder -15.876184 14.611355 -45.103663
RightArm 7.837412 -18.516131 38.305123
RightForeArm 5.390539 -0.000000 -1.537008
RightHand 7.159421 -0.000000 5.256923
RightHandThumb1 -24.326973 -0.000000 -32.862282
LeftShoulder -12.481758 6.241822 40.448342
LeftArm 22.190907 -15.154361 -44.579765
LeftForeArm 16.697747 -0.000000 -2.361456
LeftHand -25.061846 -0.000000 -1.242445
LeftHandThumb1 -26.253704 0.000000 33.147579
Head 38.067226 6.559095 11.047002
278
root -2.532935 31.219986 -5.778801 47.278539 3.125249 5.962744
RightUpLeg -46.630450 -38.402753 7.327523
RightLeg -8.559883 -0.000000 0.000000
RightFoot -0.583792 -5.049436 36.865692
RightToeBase 17.801422 -0.000000 -0.000000
LeftUpLeg -54.798073 23.245154 4.952169
LeftLeg 10.182384 -0.000000 -0.000000
LeftFoot 25.030278 0.694623 -8.272756
LeftToeBase -8.327051 -0.000000 0.000000
Spine -43.072535 3.425899 4.454911
RightShoulder -15.877775 14.662300 -45.111332
RightArm 7.886346 -18.444667 38.240986
RightForeArm 5.238447 -0.000000 -1.385356
RightHand 7.135977 0.000000 5.046090
RightHandThumb1 -24.326973 -0.000000 -32.862282
LeftShoulder -12.446947 6.117406 40.507644
LeftArm 22.110561 -15.173896 -44.430745
LeftForeArm 16.723920 -0.000000 -2.157864
LeftHand -25.172774 0.000000 -0.976044
LeftHandThumb1 -26.253704 0.000000 33.147579
Head 37.551478 6.439096 10.873247
279
root -2.297631 31.136731 -5.745368 47.246363 3.068299 5.885943
RightUpLeg -46.573315 -38.647472 7.029749
RightLeg -8.538976 -0.000000 0.000000
RightFoot -0.534743 -5.167881 37.152488
RightToeBase 17.825836 -0.000000 -0.000000
LeftUpLeg -54.306842 22.561163 5.233587
LeftLeg 10.404709 -0.000000 -0.000000
LeftFoot 22.449873 2.431709 -8.910263
LeftToeBase -9.327629 -0.000000 0.000000
Spine -43.113043 3.466622 4.573893
RightShoulder -15.917658 14.775874 -45.126605
RightArm 7.905680 -18.520616 38.175880
RightForeArm 5.158363 -0.000000 -1.217290
RightHand 7.113534 -0.000000 4.952841
RightHandThumb1 -24.326973 -0.000000 -32.862282
LeftShoulder -12.458883 6.215887 40.552103
LeftArm 22.281235 -15.182620 -44.299220
LeftForeArm 16.638174 0.000000 -2.117103
LeftHand -25.167813 -0.000000 -0.711214
LeftHandThumb1 -26.253704 0.000000 33.147579
Head 36.957486 6.281792 10.739503
280
root -2.065991 31.053081 -5.710767 47.209298 2.992927 5.753846
RightUpLeg -46.594481 -38.890446 6.860584
RightLeg -8.472030 -0.000000 0.000000
RightFoot -0.463325 -5.241227 37.300274
RightToeBase 17.837482 -0.000000 -0.000000
LeftUpLeg -53.766800 22.018373 5.536987
LeftLeg 10.627960 -0.000000 -0.000000
LeftFoot 19.294385 3.976413 -9.990905
LeftToeBase -7.192533 -0.000000 0.000000
Spine -43.135033 3.549970 4.680631
RightShoulder -16.046673 14.856516 -45.107851
RightArm 8.047264 -18.672122 38.096545
RightForeArm 5.164406 -0.000000 -1.130036
RightHand 7.228731 -0.000000 4.765724
RightHandThumb1 -24.326973 -0.000000 -32.862282
LeftShoulder -12.438533 6.063481 40.629353
LeftArm 22.215071 -15.160944 -44.125107
LeftForeArm 16.743742 -0.000000 -1.930260
LeftHand -25.271101 -0.000000 -0.477863
LeftHandThumb1 -26.253704 0.000000 33.147579
Head 36.292954 6.098683 10.659264
281
root -1.838956 30.972234 -5.676815 47.168019 2.844507 5.665724
RightUpLeg -46.624572 -39.096132 6.617329
RightLeg -8.394200 -0.000000 0.000000
RightFoot -0.426133 -5.309181 37.415920
RightToeBase 18.002318 -0.000000 -0.000000
LeftUpLeg -53.263008 21.682571 5.561485
LeftLeg 10.822516 -0.000000 -0.000000
LeftFoot 16.498678 5.044823 -11.174400
LeftToeBase -5.843076 -0.000000 0.000000
Spine -43.138336 3.617807 4.672652
RightShoulder -16.192528 14.900312 -45.048215
RightArm 8.153103 -18.756146 38.056740
RightForeArm 4.996540 -0.000000 -0.897909
RightHand 7.261107 -0.000000 4.576763
RightHandThumb1 -24.326973 -0.000000 -32.862282
LeftShoulder -12.402370 6.007000 40.689856
LeftArm 22.180331 -15.284897 -43.963091
LeftForeArm 16.848644 -0.000000 -1.705654
LeftHand -25.335806 -0.000000 -0.193450
LeftHandThumb1 -26.253704 0.000000 33.147579
Head 35.584240 5.873490 10.613179
282
root -1.613152 30.895325 -5.644697 47.141017 2.631830 5.609071
RightUpLeg -46.801139 -39.344412 6.449790
RightLeg -8.239831 -0.000000 0.000000
RightFoot -0.328020 -5.280776 37.395205
RightToeBase 18.116399 -0.000000 -0.000000
LeftUpLeg -52.856045 21.593881 5.195896
LeftLeg 10.877307 -0.000000 -0.000000
LeftFoot 13.761591 5.765781 -12.322641
LeftToeBase -4.157071 -0.000000 0.000000
Spine -43.145736 3.685584 4.560876
RightShoulder -16.339748 14.919517 -44.930294
RightArm 8.253126 -18.772374 38.034759
RightForeArm 4.679565 -0.000000 -0.659835
RightHand 7.168446 -0.000000 4.301346
RightHandThumb1 -24.326973 -0.000000 -32.862282
LeftShoulder -12.424860 5.854434 40.781229
LeftArm 22.181840 -15.192305 -43.769616
LeftForeArm 16.996821 0.000000 -1.558096
LeftHand -25.315138 0.000000 0.072458
LeftHandThumb1 -26.253704 0.000000 33.147579
Head 34.844906 5.590395 10.657859
283
root -1.388851 30.822200 -5.612977 47.113804 2.373718 5.596204
RightUpLeg -47.050117 -39.615856 6.268434
RightLeg -8.005331 -0.000000 0.000000
RightFoot -0.257344 -5.199391 37.323190
RightToeBase 18.324919 -0.000000 -0.000000
LeftUpLeg -52.453781 21.612213 4.635110
LeftLeg 10.667160 -0.000000 -0.000000
LeftFoot 11.532360 6.105914 -13.149103
LeftToeBase -2.852516 -0.000000 0.000000
Spine -43.137856 3.729329 4.389130
RightShoulder -16.486743 14.920219 -44.829706
RightArm 8.318749 -18.778707 38.092397
RightForeArm 4.303855 -0.000000 -0.338726
RightHand 7.118272 -0.000000 3.986881
RightHandThumb1 -24.326973 -0.000000 -32.862282
LeftShoulder -12.403038 5.817160 40.853228
LeftArm 22.162254 -15.174443 -43.597905
LeftForeArm 17.074842 -0.000000 -1.355101
LeftHand -25.437449 -0.000000 0.424957
LeftHandThumb1 -26.253704 0.000000 33.147579
Head 34.088709 5.333638 10.695584
284
root -1.177641 30.752802 -5.587222 47.102693 2.085118 5.588609
RightUpLeg -47.312770 -39.811950 6.064300
RightLeg -7.787238 -0.000000 0.000000
RightFoot -0.236784 -5.214138 37.093097
RightToeBase 18.362640 -0.000000 -0.000000
LeftUpLeg -52.000880 21.578533 4.219223
LeftLeg 10.346080 -0.000000 -0.000000
LeftFoot 9.498845 6.307214 -13.826498
LeftToeBase -1.666157 -0.000000 0.000000
Spine -43.122069 3.734337 4.167665
RightShoulder -16.624631 14.926545 -44.680365
RightArm 8.382982 -18.981963 38.159779
RightForeArm 4.057819 -0.000000 -0.017384
RightHand 7.168402 -0.000000 3.746771
RightHandThumb1 -24.326973 -0.000000 -32.862282
LeftShoulder -12.396779 5.731634 40.925804
LeftArm 22.083935 -15.118541 -43.362617
LeftForeArm 17.177041 -0.000000 -1.129230
LeftHand -25.524755 -0.000000 0.716552
LeftHandThumb1 -26.253704 0.000000 33.147579
Head 33.294099 5.073185 10.809295
285
root -0.969207 30.691835 -5.567681 47.147921 1.809498 5.637407
RightUpLeg -47.645951 -40.014308 5.830948
RightLeg -7.526733 -0.000000 0.000000
RightFoot -0.231539 -5.228528 36.691641
RightToeBase 18.426810 -0.000000 -0.000000
LeftUpLeg -51.629568 21.517561 3.789387
LeftLeg 10.023236 -0.000000 -0.000000
LeftFoot 7.636029 6.352845 -14.743484
LeftToeBase -0.371227 -0.000000 0.000000
Spine -43.140925 3.715635 3.868854
RightShoulder -16.775007 14.899180 -44.530089
RightArm 8.363243 -19.179687 38.275028
RightForeArm 3.877563 -0.000000 0.366832
RightHand 7.155897 0.000000 3.477620
RightHandThumb1 -24.326973 -0.000000 -32.862282
LeftShoulder -12.365305 6.450779 40.790481
LeftArm 22.606849 -15.677097 -43.270564
LeftForeArm 17.289717 -0.000000 -0.924113
LeftHand -25.662276 -0.000000 0.982052
LeftHandThumb1 -26.253704 0.000000 33.147579
Head 32.444667 4.719898 10.902313
286
root -0.772194 30.636510 -5.554013 47.200242 1.536147 5.681146
RightUpLeg -48.023438 -40.165987 5.602520
RightLeg -7.185368 -0.000000 0.000000
RightFoot -0.245281 -5.241078 36.435243
RightToeBase 18.686477 -0.000000 -0.000000
LeftUpLeg -51.309664 21.513250 3.350221
LeftLeg 9.692280 -0.000000 -0.000000
LeftFoot 6.052340 6.138220 -15.220021
LeftToeBase 0.661323 -0.000000 -0.000000
Spine -43.145727 3.645419 3.576736
RightShoulder -16.894908 14.834135 -44.344875
RightArm 8.348420 -19.205275 38.467453
RightForeArm 3.617650 -0.000000 0.736837
RightHand 7.193025 0.000000 3.337504
RightHandThumb1 -24.326973 -0.000000 -32.862282
LeftShoulder -12.366170 6.651341 40.800294
LeftArm 22.741050 -15.854274 -43.130226
LeftForeArm 17.438357 -0.000000 -0.707673
LeftHand -25.718145 0.000000 1.055428
LeftHandThumb1 -26.253704 0.000000 33.147579
Head 31.582446 4.413307 11.032729
287
root -0.580364 30.585210 -5.539331 47.282394 1.333020 5.732722
RightUpLeg -48.476171 -40.390668 5.480162
RightLeg -6.809627 -0.000000 0.000000
RightFoot -0.210481 -5.179908 36.208695
RightToeBase 18.846264 -0.000000 -0.000000
LeftUpLeg -51.070098 21.511357 2.905710
LeftLeg 9.357388 -0.000000 -0.000000
LeftFoot 4.659922 5.658904 -15.325294
LeftToeBase 1.547925 -0.000000 -0.000000
Spine -43.184246 3.543025 3.296168
RightShoulder -16.954478 14.713478 -44.161513
RightArm 8.193557 -19.279752 38.701343
RightForeArm 3.492010 -0.000000 1.178478
RightHand 7.230994 0.000000 3.075231
RightHandThumb1 -24.326973 -0.000000 -32.862282
LeftShoulder -12.354085 6.531476 40.915784
LeftArm 22.686953 -15.767662 -43.014248
LeftForeArm 17.603093 0.000000 -0.516521
LeftHand -25.720553 -0.000000 1.305208
LeftHandThumb1 -26.253704 0.000000 33.147579
Head 30.698330 4.107240 11.213219
